<svg width="12" height="13" viewBox="0 0 12 13" fill="none" xmlns="http://www.w3.org/2000/svg">
<path d="M11.1338 5.41711L11.6924 5.97571C11.9209 6.22961 11.9209 6.61047 11.6924 6.83899L6.76663 11.7648C6.51273 12.0187 6.13187 12.0187 5.90335 11.7648L0.952179 6.83899C0.723663 6.61047 0.723663 6.20422 0.952179 5.97571L1.51077 5.41711C1.76468 5.16321 2.14554 5.1886 2.39944 5.41711L5.31937 8.48938V1.17688C5.31937 0.846802 5.57327 0.567505 5.92874 0.567505H6.74124C7.07132 0.567505 7.35062 0.846802 7.35062 1.17688V8.48938L10.2451 5.41711C10.4991 5.1886 10.8799 5.16321 11.1338 5.41711Z" fill="#0B3954"/>
</svg>
