<svg width="33" height="33" viewBox="0 0 33 33" fill="none" xmlns="http://www.w3.org/2000/svg">
<g clip-path="url(#clip0_1_3367)">
<path fill-rule="evenodd" clip-rule="evenodd" d="M9.70848 16.7039C11.2387 17.7571 13.3275 18.9448 16.6001 18.9448C19.8727 18.9448 21.9614 17.7571 23.4918 16.7039C23.7302 16.5397 23.9392 16.3903 24.1434 16.2442C24.2864 16.142 24.427 16.0414 24.5738 15.9386C24.906 15.706 25.243 15.4816 25.5736 15.3151C25.9028 15.1492 26.2832 15.0104 26.6972 15.0068C27.1374 15.003 27.5422 15.1521 27.8996 15.4369C28.8586 16.2009 29.0052 17.472 28.7654 18.6547C28.5196 19.8674 27.8402 21.2078 26.8204 22.446C24.7724 24.9328 21.2396 27.142 16.6001 27.142C11.9605 27.142 8.42778 24.9328 6.37978 22.446C5.35994 21.2078 4.68058 19.8674 4.4347 18.6547C4.19488 17.472 4.3415 16.2009 5.30056 15.4369C5.65804 15.1521 6.06282 15.003 6.50292 15.0068C6.91706 15.0104 7.29732 15.1492 7.62664 15.3151C7.95712 15.4816 8.29416 15.706 8.62632 15.9386C8.7732 16.0414 8.91382 16.142 9.0567 16.2442C9.26098 16.3903 9.4699 16.5397 9.70848 16.7039ZM6.48902 16.6067C6.4462 16.6064 6.39262 16.6126 6.29748 16.6883C6.02614 16.9045 5.81454 17.4083 6.0028 18.3368C6.18498 19.2353 6.71996 20.3424 7.61484 21.4288C9.39626 23.5918 12.4944 25.542 16.6001 25.542C20.7058 25.542 23.804 23.5918 25.5854 21.4288C26.4802 20.3424 27.0152 19.2353 27.1974 18.3368C27.3856 17.4083 27.174 16.9045 26.9028 16.6883C26.8076 16.6126 26.754 16.6064 26.7112 16.6067C26.6424 16.6073 26.5152 16.6323 26.2936 16.7439C26.0732 16.855 25.8158 17.0221 25.4916 17.2492C25.3744 17.3312 25.2422 17.4257 25.101 17.5266C24.8808 17.6838 24.639 17.8566 24.3988 18.0219C22.7302 19.1703 20.3237 20.5448 16.6001 20.5448C12.8765 20.5448 10.47 19.1703 8.80136 18.0219C8.56116 17.8566 8.3193 17.6838 8.09918 17.5266C7.95796 17.4257 7.8257 17.3312 7.7086 17.2492C7.38428 17.0221 7.12704 16.855 6.90662 16.7439C6.68506 16.6323 6.5578 16.6073 6.48902 16.6067Z" fill="#0B3954"/>
<path fill-rule="evenodd" clip-rule="evenodd" d="M8.7318 7.99962C8.48032 8.4347 8.4527 8.74926 8.48554 8.91054C8.74984 10.208 10.0571 15.256 10.6847 17.6427L9.13726 18.0495C8.51694 15.6903 7.19352 10.5837 6.91774 9.22992C6.78184 8.56272 6.97284 7.84548 7.34656 7.19892C7.72678 6.5411 8.3292 5.89352 9.13536 5.32496C10.7522 4.18462 13.2306 3.32996 16.6003 3.32996C19.97 3.32996 22.4482 4.18462 24.0652 5.32496C24.8714 5.89352 25.4738 6.5411 25.854 7.19892C26.2278 7.84548 26.4188 8.56272 26.2828 9.22992C26.007 10.5837 24.6836 15.6903 24.0632 18.0495L22.5158 17.6427C23.1434 15.256 24.4506 10.208 24.715 8.91054C24.7478 8.74926 24.7202 8.4347 24.4688 7.99962C24.2238 7.5758 23.7944 7.09188 23.143 6.6325C21.8448 5.71694 19.7051 4.92996 16.6003 4.92996C13.4955 4.92996 11.3557 5.71694 10.0575 6.6325C9.40614 7.09188 8.97678 7.5758 8.7318 7.99962Z" fill="#0B3954"/>
<path fill-rule="evenodd" clip-rule="evenodd" d="M10.6629 25.0349C11.0163 25.3001 11.0879 25.8015 10.8229 26.1549L9.10135 28.4503C8.83627 28.8037 8.33483 28.8753 7.98137 28.6103C7.62789 28.3451 7.55627 27.8437 7.82135 27.4903L9.54285 25.1949C9.80793 24.8415 10.3094 24.7699 10.6629 25.0349Z" fill="#0B3954"/>
<path fill-rule="evenodd" clip-rule="evenodd" d="M22.4942 25.0349C22.1406 25.3001 22.069 25.8015 22.3342 26.1549L24.0556 28.4503C24.3208 28.8037 24.8222 28.8753 25.1756 28.6103C25.529 28.3451 25.6008 27.8437 25.3356 27.4903L23.6142 25.1949C23.349 24.8415 22.8476 24.7699 22.4942 25.0349Z" fill="#0B3954"/>
</g>
<defs>
<clipPath id="clip0_1_3367">
<rect width="32" height="32" fill="white" transform="translate(0.600006 0.130005)"/>
</clipPath>
</defs>
</svg>
