<svg width="33" height="33" viewBox="0 0 33 33" fill="none" xmlns="http://www.w3.org/2000/svg">
<path fill-rule="evenodd" clip-rule="evenodd" d="M6.25258 9.22244C5.58984 9.22244 5.05258 9.7597 5.05258 10.4224V23.838H3.45258V10.4224C3.45258 8.87604 4.70618 7.62244 6.25258 7.62244H26.2526C27.799 7.62244 29.0526 8.87604 29.0526 10.4224V23.9146H17.9856V9.22244H6.25258ZM19.5856 9.22244V13.2973H27.4526V10.4224C27.4526 9.7597 26.9154 9.22244 26.2526 9.22244H19.5856ZM27.4526 14.8973H19.5856V22.3146H27.4526V14.8973Z" fill="#0B3954"/>
<path d="M24.3288 16.8795C24.3288 17.2935 23.9932 17.6291 23.5792 17.6291C23.1654 17.6291 22.8298 17.2935 22.8298 16.8795C22.8298 16.4656 23.1654 16.13 23.5792 16.13C23.9932 16.13 24.3288 16.4656 24.3288 16.8795Z" fill="#0B3954"/>
</svg>
