<svg xmlns="http://www.w3.org/2000/svg" viewBox="0 0 46 31" fill="none">
  <g fill="#0b3954">
    <path fill-rule="evenodd" d="M10.237 11.065c-1.626 0-2.944 1.318-2.944 2.944H5.298a4.94 4.94 0 0 1 4.938-4.938 4.94 4.94 0 0 1 4.938 4.938h-1.994c0-1.626-1.318-2.944-2.944-2.944zm8.125 4.943H2.359v10.053a2 2 0 0 0 1.999 1.999h12.005a2 2 0 0 0 1.413-.586 2 2 0 0 0 .433-.648c.101-.242.152-.503.152-.765V16.009zM.36 14.009v12.052a4 4 0 0 0 3.998 3.998h12.005a4 4 0 0 0 3.997-3.998V14.009h-20z"/>
    <path d="M7.274 18.948a.99.99 0 0 1-.988.988.99.99 0 0 1-.988-.988c0-.262.104-.513.289-.698s.436-.289.698-.289.513.104.698.289a.99.99 0 0 1 .289.698zm8.148 0a.99.99 0 0 1-.988.988.99.99 0 0 1-.988-.988.99.99 0 0 1 .988-.988c.262 0 .513.104.698.289a.99.99 0 0 1 .289.698z"/>
  </g>
  <rect x="13.36" y=".075" width="18.08" height="17" rx="8.5" fill="#333"/>
  <path d="M19.618 8.016c0-1.261.205-2.244.616-2.948.411-.711 1.129-1.067 2.156-1.067 1.019 0 1.734.356 2.145 1.067.411.704.616 1.687.616 2.948 0 1.283-.205 2.281-.616 2.992s-1.126 1.067-2.145 1.067c-1.027 0-1.745-.356-2.156-1.067s-.616-1.709-.616-2.992zm4.543 0c0-.638-.044-1.177-.132-1.617-.081-.447-.253-.807-.517-1.078-.257-.271-.631-.407-1.122-.407-.499 0-.88.136-1.144.407-.257.271-.429.631-.517 1.078-.081.44-.121.979-.121 1.617 0 .66.04 1.214.121 1.661.088.447.26.807.517 1.078.264.271.645.407 1.144.407.491 0 .865-.136 1.122-.407.264-.271.436-.631.517-1.078.088-.447.132-1.001.132-1.661z" fill="#fff"/>
</svg>
