<svg width="33" height="33" viewBox="0 0 33 33" fill="none" xmlns="http://www.w3.org/2000/svg">
<g clip-path="url(#clip0_1_3456)">
<path fill-rule="evenodd" clip-rule="evenodd" d="M10.3514 9.23964C10.3514 6.25196 12.7734 3.82996 15.7611 3.82996C18.7488 3.82996 21.1708 6.25196 21.1708 9.23964V27.6638H19.5708V9.23964C19.5708 7.13562 17.8651 5.42996 15.7611 5.42996C13.6571 5.42996 11.9514 7.13562 11.9514 9.23964V10.0982H10.3514V9.23964Z" fill="#0B3954"/>
<path fill-rule="evenodd" clip-rule="evenodd" d="M15.7613 27.83C15.7613 27.3882 16.1195 27.03 16.5613 27.03H24.1802C24.622 27.03 24.9802 27.3882 24.9802 27.83C24.9802 28.2718 24.622 28.63 24.1802 28.63H16.5613C16.1195 28.63 15.7613 28.2718 15.7613 27.83Z" fill="#0B3954"/>
<path fill-rule="evenodd" clip-rule="evenodd" d="M7.10045 13.6452C7.10045 11.4078 8.91417 9.59412 11.1515 9.59412C13.3888 9.59412 15.2025 11.4078 15.2025 13.6452V17.6962H7.10045V13.6452ZM11.1515 11.1941C9.79783 11.1941 8.70045 12.2915 8.70045 13.6452V16.0962H13.6025V13.6452C13.6025 12.2915 12.5052 11.1941 11.1515 11.1941Z" fill="#0B3954"/>
</g>
<defs>
<clipPath id="clip0_1_3456">
<rect width="32" height="32" fill="white" transform="translate(0.440002 0.630005)"/>
</clipPath>
</defs>
</svg>
