<svg width="300" height="44" viewBox="0 0 300 44" fill="none" xmlns="http://www.w3.org/2000/svg">
<g clip-path="url(#clip0_1_3287)">
<g clip-path="url(#clip1_1_3287)">
<g clip-path="url(#clip2_1_3287)">
<path d="M75.9375 12.5024H91.7069V15.6306H79.5131V20.2328H89.8681V23.1697H79.5131V30.0899H75.9375V12.5024Z" fill="#0B3954"/>
<path d="M94.4928 12.5024H98.0684V22.1907C98.0684 22.9859 98.1775 23.6948 98.3956 24.3174C98.6137 24.9326 98.9372 25.4539 99.3656 25.8815C99.8019 26.3091 100.34 26.6354 100.979 26.8605C101.618 27.078 102.362 27.1868 103.212 27.1868C104.054 27.1868 104.795 27.078 105.434 26.8605C106.081 26.6354 106.619 26.3091 107.047 25.8815C107.483 25.4539 107.811 24.9326 108.029 24.3174C108.247 23.6948 108.356 22.9859 108.356 22.1907V12.5024H111.932V22.6183C111.932 23.7736 111.736 24.8238 111.345 25.769C110.954 26.7142 110.386 27.5243 109.642 28.1995C108.897 28.8746 107.983 29.396 106.901 29.7636C105.825 30.1312 104.596 30.3149 103.212 30.3149C101.828 30.3149 100.595 30.1312 99.5125 29.7636C98.4372 29.396 97.5272 28.8746 96.7828 28.1995C96.0381 27.5243 95.4703 26.7142 95.0794 25.769C94.6884 24.8238 94.4928 23.7736 94.4928 22.6183V12.5024Z" fill="#0B3954"/>
<path d="M116.297 12.5024H125.264C126.618 12.5024 127.791 12.645 128.784 12.93C129.776 13.2076 130.6 13.6127 131.254 14.1453C131.908 14.6779 132.393 15.3268 132.709 16.0919C133.033 16.8571 133.194 17.7235 133.194 18.6913C133.194 19.3439 133.115 19.9665 132.957 20.5591C132.799 21.1443 132.555 21.6844 132.224 22.1795C131.901 22.6746 131.491 23.1172 130.994 23.5073C130.498 23.8898 129.915 24.2087 129.246 24.4637L133.081 30.0899H128.705L125.388 25.0938H125.287L119.873 25.0826V30.0899H116.297V12.5024ZM125.355 21.9994C126.031 21.9994 126.622 21.9207 127.126 21.7631C127.637 21.6056 128.062 21.3843 128.4 21.0993C128.746 20.8142 129.002 20.4691 129.167 20.064C129.34 19.6514 129.427 19.1938 129.427 18.6913C129.427 17.7085 129.088 16.9509 128.411 16.4183C127.735 15.8782 126.716 15.6081 125.355 15.6081H119.873V21.9994H125.355Z" fill="#0B3954"/>
<path d="M137.413 12.5024H140.988L151.975 18.2412V12.5024H155.551V30.0899H151.975V22.0219L140.988 16.317V30.0899H137.413V12.5024Z" fill="#0B3954"/>
<path d="M160.085 12.5024H163.683V30.0899H160.085V12.5024Z" fill="#0B3954"/>
<path d="M173.565 15.6306H167.056V12.5024H183.649V15.6306H177.14V30.0899H173.565V15.6306Z" fill="#0B3954"/>
<path d="M186.807 12.5024H190.383V22.1907C190.383 22.9859 190.492 23.6948 190.71 24.3174C190.928 24.9326 191.252 25.4539 191.68 25.8815C192.116 26.3091 192.654 26.6354 193.293 26.8605C193.932 27.078 194.677 27.1868 195.527 27.1868C196.369 27.1868 197.109 27.078 197.749 26.8605C198.395 26.6354 198.933 26.3091 199.362 25.8815C199.798 25.4539 200.125 24.9326 200.343 24.3174C200.561 23.6948 200.67 22.9859 200.67 22.1907V12.5024H204.246V22.6183C204.246 23.7736 204.05 24.8238 203.659 25.769C203.268 26.7142 202.701 27.5243 201.956 28.1995C201.212 28.8746 200.298 29.396 199.215 29.7636C198.14 30.1312 196.91 30.3149 195.527 30.3149C194.143 30.3149 192.91 30.1312 191.827 29.7636C190.752 29.396 189.842 28.8746 189.097 28.1995C188.353 27.5243 187.785 26.7142 187.394 25.769C187.003 24.8238 186.807 23.7736 186.807 22.6183V12.5024Z" fill="#0B3954"/>
<path d="M208.611 12.5024H217.579C218.932 12.5024 220.105 12.645 221.098 12.93C222.091 13.2076 222.914 13.6127 223.568 14.1453C224.223 14.6779 224.708 15.3268 225.023 16.0919C225.347 16.8571 225.508 17.7235 225.508 18.6913C225.508 19.3439 225.429 19.9665 225.272 20.5591C225.114 21.1443 224.869 21.6844 224.538 22.1795C224.215 22.6746 223.805 23.1172 223.309 23.5073C222.813 23.8898 222.23 24.2087 221.56 24.4637L225.396 30.0899H221.019L217.703 25.0938H217.601L212.187 25.0826V30.0899H208.611V12.5024ZM217.669 21.9994C218.346 21.9994 218.936 21.9207 219.44 21.7631C219.951 21.6056 220.376 21.3843 220.714 21.0993C221.06 20.8142 221.316 20.4691 221.482 20.064C221.654 19.6514 221.741 19.1938 221.741 18.6913C221.741 17.7085 221.403 16.9509 220.726 16.4183C220.049 15.8782 219.03 15.6081 217.669 15.6081H212.187V21.9994H217.669Z" fill="#0B3954"/>
<path d="M229.75 12.5024H244.763V15.6306H233.325V19.1413H243.455V22.0782H233.325V26.973H245V30.0899H229.75V12.5024Z" fill="#0B3954"/>
<path d="M53.1703 12.0498C52.325 12.0484 51.4888 12.2225 50.7122 12.5615C49.9359 12.9005 49.2359 13.3972 48.6556 14.0211V7.43607C48.6528 5.46541 47.8809 3.57625 46.5088 2.1828C45.1366 0.789326 43.2762 0.00524313 41.3356 0.00244141H23.0413C21.1006 0.00454405 19.2399 0.788404 17.8676 2.18203C16.4952 3.57566 15.7234 5.46519 15.7213 7.43607V14.0251C14.8679 13.1074 13.7629 12.4711 12.5493 12.1984C11.3358 11.9257 10.0696 12.0292 8.91459 12.4955C7.7596 12.9618 6.76904 13.7694 6.07113 14.8138C5.3732 15.8582 5.00006 17.0913 5 18.3535C5 26.6278 10.0237 33.7331 17.1364 36.6893L17.8691 43.1274H19.6193L20.7613 37.7862C21.9911 38.0299 23.2412 38.1521 24.4943 38.1515H39.8834C41.1362 38.1521 42.3859 38.0299 43.6156 37.7862L44.7578 43.1274H46.5078L47.2384 36.6874C54.3512 33.7331 59.375 26.6258 59.375 18.3515C59.3725 16.6811 58.7181 15.0798 57.555 13.8985C56.3919 12.7173 54.8153 12.0524 53.1703 12.0498ZM39.8834 36.469H24.4943C14.6582 36.469 6.655 28.3416 6.655 18.3535C6.656 17.1742 7.10097 16.0399 7.89877 15.1829C8.69656 14.326 9.78681 13.8112 10.9462 13.744C12.1056 13.6768 13.2464 14.0623 14.135 14.8216C15.0237 15.5808 15.5928 16.6564 15.7259 17.8279C15.7469 18.0023 15.7578 18.1778 15.7584 18.3535C15.7584 23.2446 19.6772 27.2236 24.493 27.2236H32.1846C32.2952 27.2267 32.4053 27.2073 32.5084 27.1665C32.6115 27.1257 32.7055 27.0643 32.7849 26.986C32.8642 26.9076 32.9273 26.8139 32.9704 26.7104C33.0134 26.6068 33.0356 26.4956 33.0356 26.3832C33.0356 26.2708 33.0134 26.1596 32.9704 26.0561C32.9273 25.9526 32.8642 25.8588 32.7849 25.7805C32.7055 25.7022 32.6115 25.6408 32.5084 25.6C32.4053 25.5592 32.2952 25.5398 32.1846 25.5429H24.493C22.6164 25.5398 20.8175 24.7813 19.4907 23.4337C18.1637 22.086 17.417 20.2592 17.4141 18.3535C17.4145 18.1301 17.4021 17.9069 17.3769 17.6849V7.43607C17.3785 5.91088 17.9757 4.44863 19.0377 3.3701C20.0996 2.29157 21.5395 1.68487 23.0413 1.68312H41.3356C42.8375 1.68469 44.2775 2.29131 45.3397 3.36985C46.4019 4.44841 46.9991 5.91079 47.0006 7.43607V17.6763C46.9756 17.9009 46.9628 18.1268 46.9628 18.3528C46.9606 19.9333 46.4466 21.4693 45.5 22.7238C44.5534 23.9784 43.2269 24.882 41.7247 25.2953C41.7103 25.2991 41.6963 25.3047 41.6831 25.3119C41.6716 25.3128 41.6603 25.3158 41.6497 25.3205C38.7863 26.4048 34.5246 22.4079 29.1118 17.3408C28.1602 16.4412 27.4529 15.6428 26.8898 14.832C26.3644 14.0714 26.0248 13.3949 25.8344 12.7098C25.6069 11.9068 25.6154 11.1973 25.8592 10.5333C26.1577 9.72175 26.6003 9.14322 27.2209 8.78047C27.9574 8.34822 28.7397 8.27675 29.6248 8.57066C30.1562 8.75019 30.6354 9.06063 31.0197 9.47419C31.1501 9.6066 31.2805 9.7476 31.4108 9.88197L32.1435 10.6465L32.8429 9.99119C32.9466 9.89454 33.0456 9.80585 33.1408 9.70522C33.5319 9.28091 33.8526 9.01216 34.1876 8.82682C35.0565 8.35219 35.8883 8.2721 36.7297 8.57463C37.2806 8.77319 37.7316 9.14191 38.1078 9.70919C38.5588 10.3903 38.7537 11.0993 38.6944 11.8738C38.6572 12.4238 38.4956 12.9832 38.21 13.5948C37.8628 14.3342 37.3869 15.0445 36.7109 15.8348C36.1305 16.5117 35.5054 17.1478 34.8401 17.7386C34.6894 17.8898 34.6015 18.094 34.5945 18.3091C34.5875 18.5241 34.6618 18.7337 34.8023 18.8948C34.9428 19.0559 35.1388 19.1562 35.3498 19.175C35.5609 19.1939 35.7711 19.1299 35.9372 18.9963C36.6534 18.3547 37.3284 17.6668 37.9578 16.937C38.7231 16.042 39.2947 15.1848 39.7003 14.315C40.0763 13.5167 40.2869 12.7601 40.3416 11.9982C40.4281 10.8546 40.1247 9.71563 39.4819 8.77254C38.9062 7.90672 38.1656 7.30566 37.2806 6.98529C35.9893 6.52194 34.6856 6.64507 33.4028 7.34672C32.9556 7.59679 32.5471 7.91238 32.1904 8.28335C31.6205 7.68485 30.9165 7.23519 30.1385 6.97272C28.8016 6.52722 27.5396 6.64904 26.3892 7.32554C25.4375 7.88885 24.7381 8.77122 24.3078 9.9475C23.9435 10.9437 23.9226 12.028 24.2427 13.1705C24.491 14.0403 24.901 14.877 25.5378 15.7971C26.1747 16.7172 26.9452 17.5843 28.0044 18.5872C33.219 23.4703 37.1822 27.1852 40.625 27.1852C41.1466 27.188 41.6641 27.0973 42.1544 26.9171C42.1631 26.9163 42.1716 26.9136 42.1791 26.9092C42.1953 26.9045 42.2122 26.8966 42.2288 26.8919C44.0656 26.3725 45.6847 25.2565 46.8381 23.7145C47.9919 22.1725 48.6162 20.2893 48.6166 18.3528C48.6234 17.1288 49.1053 15.9569 49.9581 15.0916C50.8106 14.2263 51.965 13.7374 53.1703 13.7312C54.3772 13.7319 55.5347 14.2191 56.3881 15.0858C57.2416 15.9525 57.7213 17.1278 57.7219 18.3535C57.7219 28.3416 49.7188 36.469 39.8834 36.469Z" fill="#FFB128"/>
<path d="M10.625 18.7524C11.1428 18.7524 11.5625 18.3327 11.5625 17.8149C11.5625 17.2972 11.1428 16.8774 10.625 16.8774C10.1072 16.8774 9.6875 17.2972 9.6875 17.8149C9.6875 18.3327 10.1072 18.7524 10.625 18.7524Z" fill="#FFB128"/>
<path d="M52.8125 18.7524C53.3303 18.7524 53.75 18.3327 53.75 17.8149C53.75 17.2972 53.3303 16.8774 52.8125 16.8774C52.2947 16.8774 51.875 17.2972 51.875 17.8149C51.875 18.3327 52.2947 18.7524 52.8125 18.7524Z" fill="#FFB128"/>
</g>
</g>
</g>
<defs>
<clipPath id="clip0_1_3287">
<rect width="240" height="43.13" fill="white" transform="translate(5)"/>
</clipPath>
<clipPath id="clip1_1_3287">
<rect width="240" height="43.13" fill="white" transform="translate(5)"/>
</clipPath>
<clipPath id="clip2_1_3287">
<rect width="240" height="43.125" fill="white" transform="translate(5 0.00244141)"/>
</clipPath>
</defs>
</svg>
