<svg width="17" height="17" viewBox="0 0 17 17" fill="none" xmlns="http://www.w3.org/2000/svg">
<path d="M15.9612 14.4087C16.2425 14.7212 16.2425 15.1899 15.93 15.4712L15.055 16.3462C14.7737 16.6587 14.305 16.6587 13.9925 16.3462L10.8987 13.2524C10.7425 13.0962 10.68 12.9087 10.68 12.7212V12.1899C9.55499 13.0649 8.17999 13.5649 6.67999 13.5649C3.08624 13.5649 0.179993 10.6587 0.179993 7.06494C0.179993 3.50244 3.08624 0.564941 6.67999 0.564941C10.2425 0.564941 13.18 3.50244 13.18 7.06494C13.18 8.59619 12.6487 9.97119 11.805 11.0649H12.305C12.4925 11.0649 12.68 11.1587 12.8362 11.2837L15.9612 14.4087ZM6.67999 11.0649C8.86749 11.0649 10.68 9.28369 10.68 7.06494C10.68 4.87744 8.86749 3.06494 6.67999 3.06494C4.46124 3.06494 2.67999 4.87744 2.67999 7.06494C2.67999 9.28369 4.46124 11.0649 6.67999 11.0649Z" fill="#0B3954"/>
</svg>
