<svg width="32" height="28" viewBox="0 0 32 28" fill="none" xmlns="http://www.w3.org/2000/svg">
<g clip-path="url(#clip0_1_3335)">
<g clip-path="url(#clip1_1_3335)">
<g clip-path="url(#clip2_1_3335)">
<path fill-rule="evenodd" clip-rule="evenodd" d="M10 14.3155L8.22469 12.5127C7.88999 12.1694 7.48995 11.8965 7.04814 11.7102C6.60633 11.5239 6.1317 11.428 5.65222 11.428C5.17274 11.428 4.69811 11.5239 4.2563 11.7102C3.8145 11.8965 3.41446 12.1694 3.07975 12.5127C1.63852 13.9759 1.63852 16.3611 3.07975 17.8246L10 24.8518L16.9202 17.8246C18.3615 16.3611 18.3615 13.9759 16.9202 12.5125C16.5855 12.1692 16.1855 11.8963 15.7437 11.71C15.3019 11.5237 14.8273 11.4277 14.3478 11.4277C13.8683 11.4277 13.3937 11.5237 12.9519 11.71C12.5101 11.8963 12.11 12.1692 11.7753 12.5125L10 14.3155ZM10 27.7006L1.65556 19.2271C-0.551852 16.9856 -0.551852 13.3515 1.65556 11.11C2.65894 10.0844 4.01829 9.48379 5.45222 9.43263C6.88615 9.38148 8.28484 9.88365 9.35877 10.8352C9.45753 10.9226 9.55457 11.0145 9.64889 11.11L10 11.4666L10.3511 11.11C10.4446 11.0151 10.5414 10.9235 10.6412 10.8352C11.7152 9.88365 13.1139 9.38148 14.5478 9.43263C15.9817 9.48379 17.3411 10.0844 18.3444 11.11C20.5519 13.3515 20.5519 16.9856 18.3444 19.2271L10 27.7006Z" fill="#0B3954"/>
</g>
</g>
</g>
<rect x="13" y="0.429932" width="18.08" height="17" rx="8.5" fill="#333333"/>
<path d="M19.2584 8.37093C19.2584 7.1096 19.4637 6.12693 19.8744 5.42293C20.2851 4.7116 21.0037 4.35593 22.0304 4.35593C23.0497 4.35593 23.7647 4.7116 24.1754 5.42293C24.5861 6.12693 24.7914 7.1096 24.7914 8.37093C24.7914 9.65426 24.5861 10.6516 24.1754 11.3629C23.7647 12.0743 23.0497 12.4299 22.0304 12.4299C21.0037 12.4299 20.2851 12.0743 19.8744 11.3629C19.4637 10.6516 19.2584 9.65426 19.2584 8.37093ZM23.8014 8.37093C23.8014 7.73293 23.7574 7.19393 23.6694 6.75393C23.5887 6.3066 23.4164 5.94726 23.1524 5.67593C22.8957 5.4046 22.5217 5.26893 22.0304 5.26893C21.5317 5.26893 21.1504 5.4046 20.8864 5.67593C20.6297 5.94726 20.4574 6.3066 20.3694 6.75393C20.2887 7.19393 20.2484 7.73293 20.2484 8.37093C20.2484 9.03093 20.2887 9.5846 20.3694 10.0319C20.4574 10.4793 20.6297 10.8386 20.8864 11.1099C21.1504 11.3813 21.5317 11.5169 22.0304 11.5169C22.5217 11.5169 22.8957 11.3813 23.1524 11.1099C23.4164 10.8386 23.5887 10.4793 23.6694 10.0319C23.7574 9.5846 23.8014 9.03093 23.8014 8.37093Z" fill="white"/>
<defs>
<clipPath id="clip0_1_3335">
<rect width="20" height="18.27" fill="white" transform="translate(0 9.42993)"/>
</clipPath>
<clipPath id="clip1_1_3335">
<rect width="20" height="18.27" fill="white" transform="translate(0 9.42993)"/>
</clipPath>
<clipPath id="clip2_1_3335">
<rect width="20" height="18.2716" fill="white" transform="translate(0 9.42908)"/>
</clipPath>
</defs>
</svg>
